<svg class="" width="7" height="12" viewBox="0 0 7 12" fill="none" xmlns="http://www.w3.org/2000/svg">
<path d="M1.79668 1.8C1.32068 1.8 0.94668 1.426 0.94668 0.949999C0.94668 0.473999 1.32068 0.0999992 1.79668 0.0999992C2.27268 0.0999992 2.64668 0.473999 2.64668 0.949999C2.64668 1.426 2.27268 1.8 1.79668 1.8ZM3.49668 4.35C3.02068 4.35 2.64668 3.976 2.64668 3.5C2.64668 3.024 3.02068 2.65 3.49668 2.65C3.97268 2.65 4.34668 3.024 4.34668 3.5C4.34668 3.976 3.97268 4.35 3.49668 4.35ZM5.19668 6.9C4.72068 6.9 4.34668 6.526 4.34668 6.05C4.34668 5.574 4.72068 5.2 5.19668 5.2C5.67268 5.2 6.04668 5.574 6.04668 6.05C6.04668 6.526 5.67268 6.9 5.19668 6.9ZM3.49668 9.45C3.02068 9.45 2.64668 9.076 2.64668 8.6C2.64668 8.124 3.02068 7.75 3.49668 7.75C3.97268 7.75 4.34668 8.124 4.34668 8.6C4.34668 9.076 3.97268 9.45 3.49668 9.45ZM1.79668 12C1.32068 12 0.94668 11.626 0.94668 11.15C0.94668 10.674 1.32068 10.3 1.79668 10.3C2.27268 10.3 2.64668 10.674 2.64668 11.15C2.64668 11.626 2.27268 12 1.79668 12Z" fill="currentcolor"></path>
</svg>